<svg width="200" height="50" viewBox="0 0 200 50" xmlns="http://www.w3.org/2000/svg">
  <defs>
    <linearGradient id="grad1" x1="0%" y1="0%" x2="100%" y2="0%">
      <stop offset="0%" style="stop-color:#3f51b5;stop-opacity:1" />
      <stop offset="100%" style="stop-color:#7986cb;stop-opacity:1" />
    </linearGradient>
  </defs>
  
  <!-- Neural Network Nodes -->
  <circle cx="20" cy="15" r="3" fill="url(#grad1)" opacity="0.8"/>
  <circle cx="20" cy="25" r="3" fill="url(#grad1)" opacity="0.8"/>
  <circle cx="20" cy="35" r="3" fill="url(#grad1)" opacity="0.8"/>
  
  <circle cx="35" cy="10" r="3" fill="url(#grad1)" opacity="0.6"/>
  <circle cx="35" cy="20" r="3" fill="url(#grad1)" opacity="0.6"/>
  <circle cx="35" cy="30" r="3" fill="url(#grad1)" opacity="0.6"/>
  <circle cx="35" cy="40" r="3" fill="url(#grad1)" opacity="0.6"/>
  
  <circle cx="50" cy="15" r="3" fill="url(#grad1)" opacity="0.8"/>
  <circle cx="50" cy="25" r="3" fill="url(#grad1)" opacity="0.8"/>
  <circle cx="50" cy="35" r="3" fill="url(#grad1)" opacity="0.8"/>
  
  <!-- Connections -->
  <line x1="23" y1="15" x2="32" y2="10" stroke="url(#grad1)" stroke-width="1" opacity="0.4"/>
  <line x1="23" y1="15" x2="32" y2="20" stroke="url(#grad1)" stroke-width="1" opacity="0.4"/>
  <line x1="23" y1="15" x2="32" y2="30" stroke="url(#grad1)" stroke-width="1" opacity="0.4"/>
  <line x1="23" y1="15" x2="32" y2="40" stroke="url(#grad1)" stroke-width="1" opacity="0.4"/>
  
  <line x1="23" y1="25" x2="32" y2="10" stroke="url(#grad1)" stroke-width="1" opacity="0.4"/>
  <line x1="23" y1="25" x2="32" y2="20" stroke="url(#grad1)" stroke-width="1" opacity="0.4"/>
  <line x1="23" y1="25" x2="32" y2="30" stroke="url(#grad1)" stroke-width="1" opacity="0.4"/>
  <line x1="23" y1="25" x2="32" y2="40" stroke="url(#grad1)" stroke-width="1" opacity="0.4"/>
  
  <line x1="23" y1="35" x2="32" y2="10" stroke="url(#grad1)" stroke-width="1" opacity="0.4"/>
  <line x1="23" y1="35" x2="32" y2="20" stroke="url(#grad1)" stroke-width="1" opacity="0.4"/>
  <line x1="23" y1="35" x2="32" y2="30" stroke="url(#grad1)" stroke-width="1" opacity="0.4"/>
  <line x1="23" y1="35" x2="32" y2="40" stroke="url(#grad1)" stroke-width="1" opacity="0.4"/>
  
  <line x1="38" y1="10" x2="47" y2="15" stroke="url(#grad1)" stroke-width="1" opacity="0.4"/>
  <line x1="38" y1="10" x2="47" y2="25" stroke="url(#grad1)" stroke-width="1" opacity="0.4"/>
  <line x1="38" y1="10" x2="47" y2="35" stroke="url(#grad1)" stroke-width="1" opacity="0.4"/>
  
  <line x1="38" y1="20" x2="47" y2="15" stroke="url(#grad1)" stroke-width="1" opacity="0.4"/>
  <line x1="38" y1="20" x2="47" y2="25" stroke="url(#grad1)" stroke-width="1" opacity="0.4"/>
  <line x1="38" y1="20" x2="47" y2="35" stroke="url(#grad1)" stroke-width="1" opacity="0.4"/>
  
  <line x1="38" y1="30" x2="47" y2="15" stroke="url(#grad1)" stroke-width="1" opacity="0.4"/>
  <line x1="38" y1="30" x2="47" y2="25" stroke="url(#grad1)" stroke-width="1" opacity="0.4"/>
  <line x1="38" y1="30" x2="47" y2="35" stroke="url(#grad1)" stroke-width="1" opacity="0.4"/>
  
  <line x1="38" y1="40" x2="47" y2="15" stroke="url(#grad1)" stroke-width="1" opacity="0.4"/>
  <line x1="38" y1="40" x2="47" y2="25" stroke="url(#grad1)" stroke-width="1" opacity="0.4"/>
  <line x1="38" y1="40" x2="47" y2="35" stroke="url(#grad1)" stroke-width="1" opacity="0.4"/>
  
  <!-- Text -->
  <text x="70" y="30" font-family="Arial, sans-serif" font-size="18" font-weight="bold" fill="url(#grad1)">PINN-kit</text>
</svg> 